<svg width="200" height="51" viewBox="0 0 200 51" fill="none" xmlns="http://www.w3.org/2000/svg">
<g clip-path="url(#clip0_2_3)">
<path fill-rule="evenodd" clip-rule="evenodd" d="M17.8583 39.2322L35.3608 16.9782C35.6676 16.5885 36.1178 16.3372 36.6117 16.2804C37.1071 16.2234 37.6017 16.3658 37.9896 16.6759L46.7587 23.686C47.4556 24.2431 48.4737 24.1318 49.0328 23.4375C49.354 23.0385 49.466 22.5112 49.335 22.0166L46.8733 12.7442C46.6571 11.9298 45.8479 11.4186 45.0164 11.5713L15.4298 17.0016C14.636 17.1473 14.0715 17.8538 14.1068 18.6572L14.9689 38.3084C15.008 39.1977 15.7632 39.8872 16.6557 39.8483C17.1277 39.8277 17.567 39.6026 17.8583 39.2322Z" fill="white"/>
<path fill-rule="evenodd" clip-rule="evenodd" d="M32.3004 45.7844L27.3538 41.6861C25.9799 40.5478 23.9401 40.7347 22.7976 42.1036C22.7673 42.1399 22.7378 42.1769 22.7092 42.2145L18.5608 47.6546C18.0203 48.3634 18.1588 49.3748 18.8702 49.9133C19.2139 50.1733 19.6476 50.2859 20.075 50.2259L31.4922 48.6198C32.3769 48.4954 32.9928 47.68 32.8679 46.7985C32.8117 46.402 32.6094 46.0405 32.3004 45.7844Z" fill="white"/>
<path fill-rule="evenodd" clip-rule="evenodd" d="M29.4727 36.4239L37.456 42.5497C38.1412 43.0755 39.1202 42.9713 39.6785 42.3131L47.8722 32.6544C48.4489 31.9746 48.3633 30.9576 47.681 30.3829C47.6622 30.3672 47.6431 30.3518 47.6237 30.3369L39.5578 24.148C38.8686 23.6192 37.883 23.7282 37.3269 24.3947L29.2157 34.1165C28.6446 34.801 28.7385 35.8173 29.4256 36.3863C29.441 36.3991 29.4568 36.4117 29.4727 36.4239Z" fill="white"/>
<path fill-rule="evenodd" clip-rule="evenodd" d="M13.512 2.75105L5.61595 6.53984C3.84174 7.39116 2.55317 9.00113 2.11499 10.9141L0.164813 19.4277C-0.0339858 20.2956 0.51095 21.1597 1.38197 21.3578C1.98778 21.4956 2.61924 21.2754 3.00667 20.7913L9.29849 12.93L15.4786 5.20824C16.0357 4.51224 15.921 3.4981 15.2225 2.94308C14.7367 2.55705 14.0719 2.48242 13.512 2.75105Z" fill="white"/>
<path fill-rule="evenodd" clip-rule="evenodd" d="M10.2506 42.8687L9.53966 25.0957C9.50411 24.2062 8.75154 23.5138 7.85888 23.5493C7.38949 23.5679 6.95144 23.7889 6.65853 24.1549L0.705873 31.5922C-0.235282 32.7681 -0.235292 34.4362 0.705849 35.6121L7.36949 43.9378C7.9265 44.6338 8.9443 44.7481 9.64284 44.1931C10.0454 43.8732 10.2711 43.3814 10.2506 42.8687Z" fill="white"/>
<path fill-rule="evenodd" clip-rule="evenodd" d="M24.6933 1.21397L18.8305 8.53916C18.2735 9.23518 18.3882 10.2493 19.0867 10.8043C19.4529 11.0953 19.9277 11.2138 20.3883 11.1293L37.7683 7.93948C38.6469 7.77822 39.228 6.93777 39.0661 6.0623C38.9726 5.55637 38.6423 5.12527 38.1771 4.90206L28.6265 0.319442C27.2665 -0.33311 25.6344 0.038082 24.6933 1.21397Z" fill="white"/>
<path fill-rule="evenodd" clip-rule="evenodd" d="M82.5961 5.96802H77.3594L68.4474 16.0586V5.96802H64.0587V29.2841H68.4474V21.9246L70.487 19.6243L77.957 29.2841H83.2504L73.335 16.358L82.5961 5.96802Z" fill="white"/>
<path fill-rule="evenodd" clip-rule="evenodd" d="M94.0792 23.8541C94.0792 24.4691 93.8377 24.8949 93.2968 25.2342C92.6543 25.6372 91.9061 25.8326 91.0098 25.8326C90.1223 25.8326 89.376 25.6367 88.7276 25.2328C88.1829 24.8934 87.9403 24.4681 87.9403 23.8541V12.19H83.7047V23.7573C83.7047 25.6581 84.4924 27.1646 86.0474 28.2346C87.513 29.2428 89.18 29.7547 91.002 29.7547C92.8249 29.7547 94.4949 29.2375 95.9663 28.218C97.5242 27.1379 98.3144 25.6367 98.3144 23.7573V12.19H94.0792V23.8541Z" fill="white"/>
<path fill-rule="evenodd" clip-rule="evenodd" d="M106.981 25.3625H105.532V16.1563C106.593 15.814 107.855 15.6415 109.291 15.6415C110.356 15.6415 111.083 16.0192 111.579 16.831C112.138 17.7454 112.422 18.8397 112.422 20.0822C112.422 21.9844 112.011 23.3549 111.2 24.155C110.388 24.9566 108.968 25.3625 106.981 25.3625ZM115.081 14.5817C114.518 13.7116 113.729 13.0086 112.733 12.4914C111.746 11.979 110.599 11.7194 109.318 11.7194C108.116 11.7281 106.847 11.9158 105.532 12.2799V4.39005H101.297V29.2841H106.94C110.225 29.2841 112.693 28.4956 114.273 26.941C115.856 25.3844 116.658 23.1079 116.658 20.1741C116.658 19.1805 116.528 18.198 116.271 17.2559C116.011 16.3036 115.611 15.4037 115.081 14.5817Z" fill="white"/>
<path fill-rule="evenodd" clip-rule="evenodd" d="M126.524 15.6415C127.477 15.6415 128.149 15.9652 128.638 16.6604C129.061 17.2627 129.362 18.0128 129.539 18.898H122.902C123.114 18.0191 123.492 17.3011 124.046 16.7187C124.735 15.9934 125.545 15.6415 126.524 15.6415ZM133.867 21.6627C133.867 17.1266 132.593 11.7194 126.524 11.7194C124.104 11.7194 122.123 12.558 120.636 14.2113C119.172 15.8383 118.429 18.0235 118.429 20.7059C118.429 21.9213 118.603 23.0661 118.946 24.1074C119.295 25.1647 119.833 26.1311 120.545 26.9789C121.276 27.8496 122.25 28.5399 123.442 29.0294C124.611 29.5107 125.983 29.7547 127.525 29.7547C129.267 29.7431 130.989 29.4198 132.643 28.7922L133.147 28.6016V24.4097L132.034 24.9182C130.704 25.5254 129.072 25.8327 127.182 25.8327C125.676 25.8327 124.605 25.4306 123.908 24.6027C123.351 23.9411 122.982 23.2279 122.794 22.4399H133.867V21.6627Z" fill="white"/>
<path fill-rule="evenodd" clip-rule="evenodd" d="M139.397 5.78622C138.489 6.67437 138.029 7.84934 138.029 9.27903V12.19H135.593V16.1115H138.029V29.2841H142.265V16.1115H146.418V12.19H142.265V10.6606C142.265 9.31547 142.511 8.86193 142.617 8.72969C142.684 8.6456 142.992 8.3719 144.146 8.3719H147.383V4.45081H142.737C141.425 4.45081 140.301 4.90046 139.397 5.78622Z" fill="white"/>
<path fill-rule="evenodd" clip-rule="evenodd" d="M149.308 29.2842H153.543V4.42076H149.308V29.2842Z" fill="white"/>
<path fill-rule="evenodd" clip-rule="evenodd" d="M165.547 25.8327C164.028 25.8327 162.853 25.362 161.955 24.3922C161.038 23.4039 160.593 22.2085 160.593 20.737C160.593 19.266 161.038 18.0701 161.955 17.0814C162.853 16.112 164.028 15.6415 165.547 15.6415C167.047 15.6415 168.218 16.113 169.126 17.0843C170.052 18.0726 170.501 19.2675 170.501 20.737C170.501 22.2066 170.052 23.401 169.126 24.3898C168.218 25.3611 167.047 25.8327 165.547 25.8327ZM165.547 11.7194C162.881 11.7194 160.657 12.5998 158.939 14.3352C157.225 16.0668 156.357 18.2204 156.357 20.737C156.357 23.2537 157.223 25.4068 158.931 27.1379C160.644 28.8738 162.869 29.7547 165.547 29.7547C168.189 29.7547 170.406 28.869 172.136 27.1238C173.862 25.3825 174.737 23.2333 174.737 20.737C174.737 18.2413 173.862 16.0926 172.136 14.3498C170.406 12.6046 168.189 11.7194 165.547 11.7194Z" fill="white"/>
<path fill-rule="evenodd" clip-rule="evenodd" d="M195.523 12.19L192.493 22.4992L189.476 12.19H185.67L182.617 22.4939L179.614 12.19H175.136L180.55 29.2841H184.9L187.642 19.4688L190.396 29.2841H194.573L200 12.19H195.523Z" fill="white"/>
<path d="M65 45.9631H66.6543V43.4297H68.1775C69.843 43.4297 70.9553 42.3384 70.9553 40.6847V40.6735C70.9553 39.0199 69.843 37.9286 68.1775 37.9286H65V45.9631ZM67.7722 39.2593C68.7196 39.2593 69.2785 39.766 69.2785 40.6791V40.6903C69.2785 41.6034 68.7196 42.1157 67.7722 42.1157H66.6543V39.2593H67.7722ZM74.2969 46.0856C76.0725 46.0856 77.2065 44.9275 77.2065 42.9787V42.9676C77.2065 41.0354 76.0501 39.8717 74.2919 39.8717C72.5387 39.8717 71.3879 41.0466 71.3879 42.9676V42.9787C71.3879 44.9219 72.5107 46.0856 74.2969 46.0856ZM74.3025 44.8105C73.5135 44.8105 73.0149 44.1479 73.0149 42.9787V42.9676C73.0149 41.815 73.5191 41.1468 74.2919 41.1468C75.0697 41.1468 75.5788 41.815 75.5788 42.9676V42.9787C75.5788 44.1424 75.0802 44.8105 74.3025 44.8105ZM79.1238 45.9631H80.8061L81.8629 41.7426H81.8959L82.959 45.9631H84.6632L86.2186 39.9943H84.6407L83.748 44.4207H83.715L82.6687 39.9943H81.1343L80.0936 44.4207H80.0607L79.1728 39.9943H77.5627L79.1238 45.9631ZM89.429 46.0856C91.1058 46.0856 91.9165 45.0778 92.0974 44.198L92.1142 44.1368H90.6458L90.6346 44.1702C90.5195 44.5043 90.1198 44.8718 89.462 44.8718C88.6457 44.8718 88.1366 44.315 88.1198 43.3629H92.1633V42.8617C92.1633 41.0577 91.0841 39.8717 89.3638 39.8717C87.6436 39.8717 86.5419 41.0855 86.5419 42.9842V42.9898C86.5419 44.8996 87.6324 46.0856 89.429 46.0856ZM89.3912 41.0855C90.0539 41.0855 90.5308 41.5143 90.6289 42.3384H88.1366C88.2404 41.531 88.7334 41.0855 89.3912 41.0855ZM92.9908 45.9631H94.5905V42.6C94.5905 41.7593 95.0505 41.2749 95.8394 41.2749C96.0695 41.2749 96.289 41.3083 96.4201 41.364V39.933C96.2995 39.8996 96.1354 39.8717 95.9601 39.8717C95.2644 39.8717 94.7658 40.2894 94.5961 41.0132H94.5631V39.9943H92.9908V45.9631ZM99.5541 46.0856C101.231 46.0856 102.042 45.0778 102.222 44.198L102.239 44.1368H100.77L100.76 44.1702C100.645 44.5043 100.244 44.8718 99.5871 44.8718C98.7708 44.8718 98.261 44.315 98.2448 43.3629H102.288V42.8617C102.288 41.0577 101.208 39.8717 99.4882 39.8717C97.768 39.8717 96.6669 41.0855 96.6669 42.9842V42.9898C96.6669 44.8996 97.7567 46.0856 99.5541 46.0856ZM99.5155 41.0855C100.179 41.0855 100.655 41.5143 100.754 42.3384H98.261C98.3654 41.531 98.8584 41.0855 99.5155 41.0855ZM105.291 46.0856C106.14 46.0856 106.786 45.6513 107.098 44.9442H107.131V45.9631H108.731V37.9286H107.131V41.0299H107.098C106.781 40.3061 106.123 39.8717 105.291 39.8717C103.811 39.8717 102.901 41.0299 102.901 42.9731V42.9787C102.901 44.9163 103.811 46.0856 105.291 46.0856ZM105.827 44.7381C105.028 44.7381 104.529 44.0644 104.529 42.9787V42.9731C104.529 41.8818 105.033 41.2192 105.827 41.2192C106.6 41.2192 107.136 41.8985 107.136 42.9731V42.9787C107.136 44.0588 106.605 44.7381 105.827 44.7381ZM115.503 46.0856C116.982 46.0856 117.897 44.9163 117.897 42.9787V42.9731C117.897 41.0299 116.982 39.8717 115.508 39.8717C114.67 39.8717 114.018 40.3061 113.695 41.0299H113.662V37.9286H112.062V45.9631H113.662V44.9442H113.695C114.012 45.6513 114.659 46.0856 115.503 46.0856ZM114.971 44.7381C114.193 44.7381 113.662 44.0588 113.662 42.9787V42.9731C113.662 41.8985 114.199 41.2192 114.971 41.2192C115.766 41.2192 116.27 41.8818 116.27 42.9731V42.9787C116.27 44.0644 115.766 44.7381 114.971 44.7381ZM119.431 47.9286C120.735 47.9286 121.524 47.4776 121.984 46.0689L124 39.9943H122.313L121.069 44.6602H121.025L119.787 39.9943H118.029L120.105 45.9631L120.034 46.1579C119.891 46.5645 119.628 46.7037 119.151 46.7037C118.916 46.7037 118.73 46.6702 118.615 46.6479V47.8562C118.801 47.8896 119.118 47.9286 119.431 47.9286Z" fill="white"/>
<mask id="mask0_2_3" style="mask-type:luminance" maskUnits="userSpaceOnUse" x="128" y="36" width="37" height="12">
<path d="M164.448 36H128.573V47.9286H164.448V36Z" fill="white"/>
</mask>
<g mask="url(#mask0_2_3)">
<path d="M142.368 36.0041H140.884C140.611 36.0041 140.431 36.2133 140.431 36.476V47.4499C140.431 47.7125 140.611 47.923 140.884 47.923H142.368C142.642 47.923 142.852 47.7125 142.852 47.4499V36.476C142.852 36.2133 142.642 36.0041 142.368 36.0041Z" fill="white"/>
<path d="M137.734 44.6697C137.599 44.3762 137.213 44.2954 136.976 44.5158C136.349 45.0996 135.507 45.4583 134.579 45.4583C132.147 45.4583 130.291 43.0089 131.378 40.4592C131.699 39.7055 132.307 39.1024 133.067 38.7841C134.551 38.1621 135.994 38.5165 136.952 39.3899C137.191 39.6082 137.575 39.5308 137.71 39.2369L138.353 37.8368C138.456 37.6128 138.385 37.3501 138.187 37.2016C136.681 36.0718 134.627 35.6282 132.484 36.353C130.765 36.9346 129.425 38.3112 128.879 40.0313C127.573 44.146 130.631 47.9284 134.579 47.9284C135.953 47.9284 137.216 47.4669 138.227 46.6948C138.417 46.5489 138.477 46.2885 138.377 46.0707L137.734 44.6697Z" fill="white"/>
<path d="M164.142 40.0316C163.596 38.3113 162.255 36.9348 160.536 36.3532C159.32 35.9415 158.131 35.9072 157.055 36.1611C155.26 36.559 153.96 37.4039 152.818 39.8396L150.526 44.7773L146.635 36.2838C146.557 36.1145 146.387 36.0057 146.2 36.0053L144.5 36.0027C144.151 36.0022 143.919 36.3604 144.064 36.6756L149.11 47.6325C149.188 47.8019 149.358 47.9164 149.546 47.9164L149.628 47.923H151.536C151.574 47.923 151.613 47.9152 151.65 47.9028C151.781 47.8584 151.892 47.7654 151.949 47.6369C151.949 47.6369 154.475 41.9265 154.505 41.8576C155.274 40.0573 155.74 39.3074 156.961 38.7924C157.883 38.4028 158.975 38.3554 160.031 38.8302C160.765 39.1606 161.344 39.7644 161.651 40.5049C161.845 40.9684 161.944 41.4448 161.96 41.9143C161.987 43.867 160.402 45.4586 158.441 45.4586C157.513 45.4586 156.672 45.0999 156.044 44.5161C155.807 44.2957 155.421 44.3765 155.286 44.6699L154.644 46.0709C154.544 46.2887 154.603 46.5491 154.794 46.695C155.805 47.4671 157.068 47.9286 158.441 47.9286C162.39 47.9286 165.448 44.1462 164.142 40.0316Z" fill="white"/>
</g>
</g>
<defs>
<clipPath id="clip0_2_3">
<rect width="200" height="50.2415" fill="white"/>
</clipPath>
</defs>
</svg>
